<?xml version="1.0" encoding="UTF-8" standalone="no"?>
<!-- Created with Inkscape (http://www.inkscape.org/) -->

<svg
   xmlns:dc="http://purl.org/dc/elements/1.1/"
   xmlns:cc="http://creativecommons.org/ns#"
   xmlns:rdf="http://www.w3.org/1999/02/22-rdf-syntax-ns#"
   xmlns:svg="http://www.w3.org/2000/svg"
   xmlns="http://www.w3.org/2000/svg"
   xmlns:sodipodi="http://sodipodi.sourceforge.net/DTD/sodipodi-0.dtd"
   xmlns:inkscape="http://www.inkscape.org/namespaces/inkscape"
   width="744.09448819"
   height="1052.3622047"
   id="svg2"
   version="1.1"
   inkscape:version="0.48.3.1 r9886"
   sodipodi:docname="New document 1">
  <defs
     id="defs4">
    <marker
       inkscape:stockid="Arrow2Lstart"
       orient="auto"
       refY="0.0"
       refX="0.0"
       id="Arrow2Lstart"
       style="overflow:visible">
      <path
         id="path3941"
         style="fill-rule:evenodd;stroke-width:0.62500000;stroke-linejoin:round"
         d="M 8.7185878,4.0337352 L -2.2072895,0.016013256 L 8.7185884,-4.0017078 C 6.9730900,-1.6296469 6.9831476,1.6157441 8.7185878,4.0337352 z "
         transform="scale(1.1) translate(1,0)" />
    </marker>
    <marker
       inkscape:stockid="Arrow2Lend"
       orient="auto"
       refY="0.0"
       refX="0.0"
       id="Arrow2Lend"
       style="overflow:visible;">
      <path
         id="path3944"
         style="fill-rule:evenodd;stroke-width:0.62500000;stroke-linejoin:round;"
         d="M 8.7185878,4.0337352 L -2.2072895,0.016013256 L 8.7185884,-4.0017078 C 6.9730900,-1.6296469 6.9831476,1.6157441 8.7185878,4.0337352 z "
         transform="scale(1.1) rotate(180) translate(1,0)" />
    </marker>
    <marker
       inkscape:stockid="Arrow1Lstart"
       orient="auto"
       refY="0.0"
       refX="0.0"
       id="Arrow1Lstart"
       style="overflow:visible">
      <path
         id="path3923"
         d="M 0.0,0.0 L 5.0,-5.0 L -12.5,0.0 L 5.0,5.0 L 0.0,0.0 z "
         style="fill-rule:evenodd;stroke:#000000;stroke-width:1.0pt"
         transform="scale(0.8) translate(12.5,0)" />
    </marker>
    <marker
       inkscape:stockid="Arrow1Lend"
       orient="auto"
       refY="0.0"
       refX="0.0"
       id="Arrow1Lend"
       style="overflow:visible;">
      <path
         id="path3926"
         d="M 0.0,0.0 L 5.0,-5.0 L -12.5,0.0 L 5.0,5.0 L 0.0,0.0 z "
         style="fill-rule:evenodd;stroke:#000000;stroke-width:1.0pt;"
         transform="scale(0.8) rotate(180) translate(12.5,0)" />
    </marker>
    <marker
       inkscape:stockid="Arrow2Lstart"
       orient="auto"
       refY="0"
       refX="0"
       id="Arrow2Lstart-0"
       style="overflow:visible">
      <path
         inkscape:connector-curvature="0"
         id="path3941-1"
         style="fill-rule:evenodd;stroke-width:0.625;stroke-linejoin:round"
         d="M 8.7185878,4.0337352 -2.2072895,0.01601326 8.7185884,-4.0017078 c -1.7454984,2.3720609 -1.7354408,5.6174519 -6e-7,8.035443 z"
         transform="matrix(1.1,0,0,1.1,1.1,0)" />
    </marker>
    <marker
       inkscape:stockid="Arrow2Lend"
       orient="auto"
       refY="0"
       refX="0"
       id="Arrow2Lend-3"
       style="overflow:visible">
      <path
         inkscape:connector-curvature="0"
         id="path3944-9"
         style="fill-rule:evenodd;stroke-width:0.625;stroke-linejoin:round"
         d="M 8.7185878,4.0337352 -2.2072895,0.01601326 8.7185884,-4.0017078 c -1.7454984,2.3720609 -1.7354408,5.6174519 -6e-7,8.035443 z"
         transform="matrix(-1.1,0,0,-1.1,-1.1,0)" />
    </marker>
    <marker
       inkscape:stockid="Arrow2Lstart"
       orient="auto"
       refY="0"
       refX="0"
       id="Arrow2Lstart-06"
       style="overflow:visible">
      <path
         inkscape:connector-curvature="0"
         id="path3941-3"
         style="fill-rule:evenodd;stroke-width:0.625;stroke-linejoin:round"
         d="M 8.7185878,4.0337352 -2.2072895,0.01601326 8.7185884,-4.0017078 c -1.7454984,2.3720609 -1.7354408,5.6174519 -6e-7,8.035443 z"
         transform="matrix(1.1,0,0,1.1,1.1,0)" />
    </marker>
    <marker
       inkscape:stockid="Arrow2Lend"
       orient="auto"
       refY="0"
       refX="0"
       id="Arrow2Lend-1"
       style="overflow:visible">
      <path
         inkscape:connector-curvature="0"
         id="path3944-3"
         style="fill-rule:evenodd;stroke-width:0.625;stroke-linejoin:round"
         d="M 8.7185878,4.0337352 -2.2072895,0.01601326 8.7185884,-4.0017078 c -1.7454984,2.3720609 -1.7354408,5.6174519 -6e-7,8.035443 z"
         transform="matrix(-1.1,0,0,-1.1,-1.1,0)" />
    </marker>
  </defs>
  <sodipodi:namedview
     id="base"
     pagecolor="#ffffff"
     bordercolor="#666666"
     borderopacity="1.0"
     inkscape:pageopacity="0.0"
     inkscape:pageshadow="2"
     inkscape:zoom="1.4"
     inkscape:cx="210.22747"
     inkscape:cy="698.24618"
     inkscape:document-units="px"
     inkscape:current-layer="layer1"
     showgrid="false"
     showguides="true"
     inkscape:guide-bbox="true"
     inkscape:window-width="1364"
     inkscape:window-height="1401"
     inkscape:window-x="0"
     inkscape:window-y="18"
     inkscape:window-maximized="0">
    <sodipodi:guide
       orientation="1,0"
       position="0,921.42857"
       id="guide3837" />
    <sodipodi:guide
       orientation="1,0"
       position="150,976.42857"
       id="guide3841" />
    <sodipodi:guide
       orientation="1,0"
       position="300,996.42857"
       id="guide3843" />
    <sodipodi:guide
       orientation="1,0"
       position="450,1032.1429"
       id="guide3845" />
    <sodipodi:guide
       orientation="1,0"
       position="225,1022.8571"
       id="guide3888" />
  </sodipodi:namedview>
  <metadata
     id="metadata7">
    <rdf:RDF>
      <cc:Work
         rdf:about="">
        <dc:format>image/svg+xml</dc:format>
        <dc:type
           rdf:resource="http://purl.org/dc/dcmitype/StillImage" />
        <dc:title></dc:title>
      </cc:Work>
    </rdf:RDF>
  </metadata>
  <g
     inkscape:label="Layer 1"
     inkscape:groupmode="layer"
     id="layer1">
    <g
       id="g3912"
       transform="translate(0,-1.5258789e-5)">
      <text
         sodipodi:linespacing="125%"
         id="text2985"
         y="211.96474"
         x="190.24609"
         style="font-size:14px;font-style:normal;font-weight:normal;line-height:125%;letter-spacing:0px;word-spacing:0px;fill:#000000;fill-opacity:1;stroke:none;font-family:Sans"
         xml:space="preserve"><tspan
           y="211.96474"
           x="190.24609"
           id="tspan2987"
           sodipodi:role="line">Datastore</tspan></text>
      <rect
         y="186.96083"
         x="0"
         height="40"
         width="450"
         id="rect2989"
         style="fill:none;stroke:#000000;stroke-width:2;stroke-linecap:round;stroke-linejoin:round;stroke-miterlimit:4;stroke-opacity:1;stroke-dasharray:none" />
    </g>
    <g
       id="g3907"
       transform="translate(0,3.1533813)">
      <text
         sodipodi:linespacing="125%"
         id="text3763"
         y="370.30133"
         x="187.34082"
         style="font-size:14px;font-style:normal;font-weight:normal;line-height:125%;letter-spacing:0px;word-spacing:0px;fill:#000000;fill-opacity:1;stroke:none;font-family:Sans"
         xml:space="preserve"><tspan
           y="370.30133"
           x="187.34082"
           id="tspan3765"
           sodipodi:role="line">Webserver</tspan></text>
      <rect
         y="345.08209"
         x="150"
         height="40"
         width="150"
         id="rect3788-8"
         style="fill:none;stroke:#000000;stroke-width:2;stroke-linecap:round;stroke-linejoin:round;stroke-miterlimit:4;stroke-opacity:1;stroke-dasharray:none" />
    </g>
    <g
       id="g3896"
       transform="translate(0,4.0993652)">
      <text
         sodipodi:linespacing="125%"
         id="text3759"
         y="287.36108"
         x="166.92871"
         style="font-size:14px;font-style:normal;font-weight:normal;line-height:125%;letter-spacing:0px;word-spacing:0px;fill:#000000;fill-opacity:1;stroke:none;font-family:Sans"
         xml:space="preserve"><tspan
           y="287.36108"
           x="166.92871"
           id="tspan3761"
           sodipodi:role="line">Compute engine</tspan></text>
      <text
         sodipodi:linespacing="125%"
         id="text3763-8"
         y="287.36108"
         x="8.4042969"
         style="font-size:14px;font-style:normal;font-weight:normal;line-height:125%;letter-spacing:0px;word-spacing:0px;fill:#000000;fill-opacity:1;stroke:none;font-family:Sans"
         xml:space="preserve"><tspan
           y="287.36108"
           x="8.4042969"
           id="tspan3765-7"
           sodipodi:role="line">Notification engine</tspan></text>
      <rect
         y="263.49878"
         x="150"
         height="40"
         width="150"
         id="rect3788"
         style="fill:none;stroke:#000000;stroke-width:2;stroke-linecap:round;stroke-linejoin:round;stroke-miterlimit:4;stroke-opacity:1;stroke-dasharray:none" />
      <text
         sodipodi:linespacing="125%"
         id="text3790"
         y="288.71802"
         x="334.98242"
         style="font-size:14px;font-style:normal;font-weight:normal;line-height:125%;letter-spacing:0px;word-spacing:0px;fill:#000000;fill-opacity:1;stroke:none;font-family:Sans"
         xml:space="preserve"><tspan
           y="288.71802"
           x="334.98242"
           id="tspan3792"
           sodipodi:role="line">Data cache</tspan></text>
      <rect
         y="263.49878"
         x="300"
         height="40"
         width="150"
         id="rect3788-9"
         style="fill:none;stroke:#000000;stroke-width:2;stroke-linecap:round;stroke-linejoin:round;stroke-miterlimit:4;stroke-opacity:1;stroke-dasharray:none" />
      <rect
         y="263.49878"
         x="0"
         height="40"
         width="150"
         id="rect3788-6"
         style="fill:none;stroke:#000000;stroke-width:2;stroke-linecap:round;stroke-linejoin:round;stroke-miterlimit:4;stroke-opacity:1;stroke-dasharray:none" />
    </g>
    <g
       id="g3890"
       transform="translate(0,24)">
      <text
         sodipodi:linespacing="125%"
         id="text3851"
         y="580.22327"
         x="208.4297"
         style="font-size:14px;font-style:normal;font-weight:normal;line-height:125%;letter-spacing:0px;word-spacing:0px;fill:#000000;fill-opacity:1;stroke:none;font-family:Sans"
         xml:space="preserve"><tspan
           y="580.22327"
           x="208.4297"
           id="tspan3853"
           sodipodi:role="line">User</tspan></text>
      <rect
         y="555.21936"
         x="150.00002"
         height="40"
         width="150"
         id="rect3788-8-2"
         style="fill:none;stroke:#000000;stroke-width:2;stroke-linecap:round;stroke-linejoin:round;stroke-miterlimit:4;stroke-opacity:1;stroke-dasharray:none" />
      <path
         sodipodi:nodetypes="csssssssssssssssssssssccc"
         inkscape:connector-curvature="0"
         id="path3884"
         d="m 150,554.29621 0,-13.35715 c 0,-8.26042 0.28865,-12.14132 0.96634,-12.99241 0.53149,-0.66749 5.66278,-3.19555 11.40287,-5.61793 12.80653,-5.40448 24.67064,-11.5797 32.85572,-17.10127 7.22521,-4.87406 8.85149,-6.21901 10.65356,-8.81064 2.03689,-2.92932 1.62231,-5.02872 -1.95647,-9.90748 -1.80706,-2.46348 -4.05661,-6.2042 -4.999,-8.31274 -0.94238,-2.10853 -2.24969,-5.05128 -2.90514,-6.53946 -0.65544,-1.48817 -2.0502,-3.87526 -3.09947,-5.30465 -2.86821,-3.90729 -3.2282,-7.29429 -1.27588,-12.00459 1.41372,-3.41085 1.65102,-5.52631 1.65888,-14.78834 0.0124,-14.55133 1.55794,-20.18761 7.07529,-25.80135 6.39288,-6.50456 13.28708,-8.91764 25.38471,-8.88508 13.17514,0.0355 21.67751,3.64205 26.85717,11.39242 3.88438,5.81223 4.76721,9.94998 4.90497,22.98927 0.10176,9.63179 0.36567,12.04913 1.57425,14.41971 2.37839,4.66505 1.66841,10.19289 -1.78227,13.87684 -0.87183,0.93076 -2.71068,4.44194 -4.08634,7.80262 -1.37567,3.36068 -4.01016,8.15292 -5.85443,10.64942 -5.71507,7.7362 -4.28308,11.02943 8.45645,19.44763 8.11109,5.35977 24.14304,13.55906 35.08515,17.94377 4.63764,1.85838 8.66642,3.96088 9.08364,4.74045 0.0374,5.13771 0,26.89935 0,26.89935 z"
         style="fill:#000000;stroke:#000000;stroke-width:2;stroke-miterlimit:4;stroke-opacity:1;stroke-dasharray:none" />
    </g>
    <path
       style="fill:none;stroke:#000000;stroke-width:1px;stroke-linecap:butt;stroke-linejoin:miter;stroke-opacity:1;marker-start:url(#Arrow2Lstart);marker-mid:none;marker-end:url(#Arrow2Lend)"
       d="m 225,229.22572 0,35.9265"
       id="path3917"
       inkscape:connector-curvature="0"
       sodipodi:nodetypes="cc" />
    <path
       style="fill:none;stroke:#000000;stroke-width:1px;stroke-linecap:butt;stroke-linejoin:miter;stroke-opacity:1;marker-start:url(#Arrow2Lstart);marker-mid:none;marker-end:url(#Arrow2Lend)"
       d="m 225,309.99329 0,35.9265"
       id="path3917-2"
       inkscape:connector-curvature="0"
       sodipodi:nodetypes="cc" />
    <path
       style="fill:none;stroke:#000000;stroke-width:1px;stroke-linecap:butt;stroke-linejoin:miter;stroke-opacity:1;marker-start:url(#Arrow2Lstart);marker-mid:none;marker-end:url(#Arrow2Lend)"
       d="m 225,390.64893 0,35.9265"
       id="path3917-3"
       inkscape:connector-curvature="0"
       sodipodi:nodetypes="cc" />
  </g>
</svg>
